<?xml version="1.0" encoding="utf-8"?>
<!-- Generator: Adobe Illustrator 23.0.0, SVG Export Plug-In . SVG Version: 6.00 Build 0)  -->
<svg version="1.1" id="Layer_1" xmlns="http://www.w3.org/2000/svg" xmlns:xlink="http://www.w3.org/1999/xlink" x="0px" y="0px"
	 viewBox="0 0 512 512" style="enable-background:new 0 0 512 512;" xml:space="preserve">
<style type="text/css">
	.st0{fill:#FFFFFF;}
</style>
<g>
	<g>
		<path class="st0" d="M512,289.5c0-12-3.6-23.8-10.1-33.8c6.6-11.2,10.1-23.8,10.1-36.9c0-24-11.9-46.3-31.6-59.9
			c2.2-5.8,3.3-12,3.3-18.2c0-25.7-19-47.2-43.9-51.6c-1.3-26.1-22.1-47.2-48.3-49.6c-7.8-16.4-24.9-27.4-43.7-27.4
			c-4.8,0-9.6,0.7-14.2,2.1C326.5,5.4,315.5,0,303.8,0c-21,0-38.1,16.8-38.1,37.4v133.9c0,16.3,7.4,31.7,19.6,42.2
			c-12.3,11.1-19.6,26.9-19.6,43.8v82.4c0,10,2.5,19.7,7.3,28.3c-4.8,8.3-7.3,17.7-7.3,27.4v64.1c0,28.9,23.9,52.4,53.3,52.4
			c19.2,0,36.6-10,46-25.8c6.8,3,14.1,4.5,21.6,4.5c29.1,0,52.8-23,53.3-51.4c29.6-8.6,50.3-35.2,50.3-66.3
			c0-10.8-2.5-21.3-7.4-30.8C500.8,330.7,512,311,512,289.5z M473.9,325.3c-13-22.2-39.1-26.7-52.7-27.4
			c-2.7-11.1-8.9-21.1-18.1-28.5c-4-3.3-10-2.7-13.3,1.3c-3.3,4-2.8,9.8,1.3,13.1c8.1,6.5,12.7,16.2,12.7,26.5
			c0,18.9-15.6,34.2-34.8,34.2c-19.2,0-34.8-15.4-34.8-34.2c0-8.2,3-16.1,8.4-22.3c0.1-0.1,0.2-0.3,0.3-0.5c2.6-0.4,5.2-1,7.8-1.9
			c19.9-7.3,30.1-29.2,22.6-48.7c-1.8-4.8-7.3-7.2-12.2-5.5c-4.9,1.8-7.4,7.2-5.6,12c3.8,9.9-1.4,21.1-11.5,24.8
			c-10.1,3.7-21.4-1.4-25.2-11.3c-1.8-4.8-7.3-7.3-12.2-5.5c-4.9,1.8-7.4,7.2-5.6,12c3.8,10.1,11.6,17.5,20.9,21.5
			c-4.4,7.8-6.8,16.5-6.8,25.5c0,29.1,24.1,52.9,53.7,52.9c27.4,0,50-20.3,53.3-46.4c11.7,1,32.1,5.4,38.3,24.6
			c0.3,0.9,0.7,1.6,1.2,2.3c0,0.1,0,0.2,0.1,0.2c6.2,8.6,9.4,18.6,9.4,29.1c0,21.2-13.2,39.4-32.5,46.9c-3-18.2-15.2-30.1-15.8-30.6
			c-3.8-3.5-9.8-3.4-13.4,0.3c-3.6,3.7-3.4,9.6,0.4,13.2c0.1,0.1,12.3,12,10.6,28.3c0,0.4,0.1,0.8,0.1,1.2s-0.1,0.8-0.1,1.2
			c0.2,1.6,0.4,3.2,0.4,4.9c0,18.6-15.4,33.8-34.4,33.8c-4.6,0-9-1-13.2-2.7c4.2-11.1,5-27.7-8-45.4c6.3-10.3,6.1-23.6-1.4-33.9
			c-3.1-4.2-9-5.1-13.2-2.1c-4.2,3-5.2,8.8-2.1,13c4,5.4,2.7,13-2.8,17c-5.5,3.9-13.3,2.7-17.3-2.7c-3.1-4.2-9-5.1-13.2-2.1
			c-4.2,3-5.2,8.8-2.1,13c6.1,8.3,15.7,12.7,25.4,12.7c4.2,0,8.4-0.9,12.4-2.6c11.8,17.4,3.4,29.5,2.2,31.1
			c-0.5,0.7-0.8,1.4-1.1,2.2c-0.1,0.3-0.4,0.4-0.4,0.7c-4.6,13.9-17.8,23.3-32.7,23.3c-19,0-34.4-15.2-34.4-33.8v-64.1
			c0-4.6,0.9-9,2.5-13.1c8.4,5.5,22,11.7,40.6,11.7c0.9,0,1.8,0,2.7,0c5.2-0.2,9.3-4.5,9.2-9.6c-0.2-5-4.4-9-9.4-9
			c-0.1,0-0.2,0-0.3,0c-0.7,0-1.4,0-2.1,0c-21.7,0-33.9-10.9-36.1-13.1c-4.6-6.7-7.1-14.5-7.1-22.7v-82.4c0-15,8.4-28.7,21.8-35.9
			c0.2-0.1,0.4-0.3,0.6-0.4c0.1-0.1,0.3-0.1,0.4-0.2c2.1-1.4,20.8-13.4,40.6,3.1c1.8,1.5,4,2.2,6.1,2.2c2.7,0,5.3-1.1,7.2-3.3
			c3.4-3.9,2.9-9.8-1.1-13.1c-21.8-18.3-45.3-13.9-58.4-7.3c-10.6-6.8-17.2-18.5-17.2-31.1V37.5c0-10.4,8.6-18.8,19.2-18.8
			c6.6,0,12.6,3.5,16.1,9c-1.7,7.6-5.7,18.1-11.5,21.5c-4.5,2.6-6,8.3-3.3,12.8c1.8,2.9,4.9,4.6,8.2,4.6c1.6,0,3.3-0.4,4.8-1.3
			c12.6-7.3,18-23.8,20.1-32.5c3.1-1.1,6.4-1.8,9.7-1.8c12.5,0,23.8,8.1,27.7,19.7c0.1,5.2-0.2,25.8-11.9,38.6
			c-4.5,4.9-10.2,8.1-17.1,9.7c-2.1-9.7-9.1-18.2-19.3-21.7c-4.9-1.7-10.3,0.9-12.1,5.7c-1.7,4.9,0.9,10.2,5.8,11.9
			c5.7,2,8.7,8.1,6.8,13.7c-2,5.6-8.2,8.6-13.9,6.6c-5-1.7-10.3,0.9-12.1,5.7c-1.7,4.9,0.9,10.2,5.8,11.9c3.2,1.1,6.5,1.6,9.8,1.6
			c11.2,0,21.7-6.2,26.8-16.4c13.8-1.7,25.2-7.1,33.8-16.5c12.1-13.4,15.5-31.2,16.3-42.6c15.3,3.4,26.7,16.8,26.7,32.9
			c0,1.6-0.1,3.2-0.3,4.7c-0.1,0.7,0.1,1.3,0.2,2c-0.7,5.9-3.2,15.9-7.6,18.7c-4.4,2.8-5.6,8.6-2.8,12.9c1.8,2.8,4.9,4.3,8,4.3
			c1.8,0,3.5-0.5,5.1-1.5c8.9-5.7,13-16.7,14.9-24.8c15.1,3.5,26.4,16.9,26.4,32.8c0,2.8-0.4,5.6-1.1,8.4
			c-16.3-7.3-42.7-11.1-70.2,6.6c-8-5.1-17.4-7.7-27-7.1c-11.8,0.8-22.7,6-30.5,14.8c-3.4,3.9-3,9.7,0.9,13.1
			c3.9,3.4,9.9,3,13.4-0.9c4.5-5,10.7-8,17.5-8.5c6.8-0.4,13.4,1.7,18.5,6.2c10.6,9.1,11.6,24.9,2.4,35.3c-3.4,3.9-3,9.7,0.9,13.1
			c1.8,1.5,4,2.3,6.2,2.3c2.6,0,5.2-1.1,7.1-3.2c13.1-14.7,14.1-35.7,4.2-51.6c30.3-17.5,54.4-0.4,55.5,0.5c0.2,0.2,0.5,0.2,0.7,0.3
			c0.2,0.1,0.3,0.3,0.6,0.5c18.1,9.5,29.3,28,29.3,48.1c0,7.3-1.6,14.4-4.4,21c-7.1-5.8-14.6-8-20.4-8.8
			c-3.5-14.8-14.5-27-29.6-31.8c-4.9-1.5-10.3,1.1-11.9,6c-1.6,4.9,1.2,10.1,6.1,11.7c10.4,3.3,17.5,12.7,17.7,23.4
			c0.2,9-4.6,17.5-12.5,22.1c-4.5,2.6-6,8.3-3.3,12.8c1.8,2.9,4.9,4.6,8.1,4.6c1.6,0,3.3-0.4,4.8-1.3c10.8-6.3,18.1-16.7,20.7-28.4
			c4.2,1.1,9.6,3.9,13.9,10.9c0.1,0.2,0.3,0.4,0.5,0.6c0.1,0.1,0.1,0.3,0.2,0.4c6.5,7.9,10,17.5,10,27.7
			C493,304,485.7,317.2,473.9,325.3z"/>
	</g>
</g>
<g>
	<g>
		<path class="st0" d="M246.3,171.4V37.5c0-20.6-17.1-37.4-38.1-37.4c-11.8,0-22.7,5.4-29.9,14.2c-4.6-1.4-9.4-2.1-14.2-2.1
			c-18.8,0-35.9,11-43.7,27.4c-26.2,2.4-47,23.5-48.3,49.6c-24.9,4.4-43.9,25.9-43.9,51.6c0,6.2,1.1,12.4,3.3,18.2
			C11.9,172.5,0,194.8,0,218.8c0,13.1,3.5,25.7,10.1,36.9C3.6,265.7,0,277.5,0,289.5C0,311,11.2,330.7,29.2,342
			c-4.9,9.5-7.4,20-7.4,30.8c0,31.1,20.7,57.8,50.3,66.3c0.5,28.4,24.3,51.4,53.3,51.4c7.5,0,14.8-1.5,21.6-4.5
			c9.4,15.8,26.7,25.8,46,25.8c29.4,0,53.3-23.5,53.3-52.4v-64.1c0-9.7-2.5-19.1-7.3-27.4c4.8-8.7,7.3-18.4,7.3-28.3v-82.4
			c0-16.9-7.3-32.7-19.6-43.8C238.9,203.1,246.3,187.7,246.3,171.4z M227.4,171.4L227.4,171.4L227.4,171.4
			c0,12.6-6.6,24.3-17.2,31.1c-13.1-6.6-36.6-10.9-58.4,7.3c-4,3.3-4.5,9.2-1.1,13.1c1.9,2.2,4.5,3.3,7.2,3.3c2.2,0,4.4-0.7,6.1-2.2
			c19.8-16.6,38.5-4.6,40.6-3.1c0.1,0.1,0.3,0.1,0.4,0.2c0.2,0.1,0.4,0.3,0.6,0.4c13.4,7.1,21.8,20.9,21.8,35.9v82.4
			c0,8.1-2.5,16-7.1,22.7c-2.2,2.2-14.4,13.1-36.1,13.1c-0.7,0-1.4,0-2.1,0c-0.1,0-0.2,0-0.3,0c-5.1,0-9.3,4-9.4,9
			c-0.2,5.1,3.9,9.4,9.2,9.6c0.9,0,1.8,0,2.7,0c18.7,0,32.2-6.2,40.6-11.7c1.6,4.2,2.5,8.6,2.5,13.1v64.1
			c0,18.6-15.4,33.8-34.4,33.8c-14.9,0-28-9.4-32.7-23.3c-0.1-0.3-0.3-0.4-0.4-0.7c-0.3-0.7-0.6-1.5-1.1-2.2
			c-1.2-1.5-9.6-13.7,2.2-31.1c4,1.7,8.2,2.6,12.4,2.6c9.7,0,19.3-4.4,25.4-12.7c3.1-4.2,2.1-10-2.1-13c-4.2-3-10.1-2.1-13.2,2.1
			c-4,5.4-11.8,6.7-17.3,2.7c-5.5-3.9-6.8-11.5-2.8-17c3.1-4.2,2.1-10-2.1-13c-4.2-3-10.2-2.1-13.2,2.1c-7.6,10.3-7.7,23.7-1.4,33.9
			c-13,17.7-12.2,34.4-8,45.4c-4.2,1.7-8.6,2.7-13.2,2.7c-19,0-34.4-15.2-34.4-33.8c0-1.7,0.1-3.3,0.4-4.9c0.1-0.4-0.1-0.8-0.1-1.2
			c0-0.4,0.2-0.8,0.1-1.2c-1.7-16.3,10.5-28.2,10.6-28.3c3.8-3.5,4-9.4,0.4-13.2c-3.6-3.7-9.6-3.9-13.4-0.3
			c-0.6,0.6-12.8,12.4-15.8,30.6c-19.3-7.5-32.5-25.7-32.5-46.9c0-10.5,3.2-20.5,9.4-29.1c0-0.1,0-0.2,0.1-0.2
			c0.5-0.7,0.9-1.5,1.2-2.3c6.2-19.2,26.7-23.6,38.3-24.6c3.3,26.1,25.9,46.4,53.3,46.4c29.6,0,53.8-23.7,53.8-52.9
			c0-9-2.4-17.7-6.8-25.5c9.3-3.9,17.1-11.4,20.9-21.5c1.8-4.8-0.7-10.2-5.6-12c-4.9-1.8-10.4,0.6-12.2,5.5
			c-3.8,9.9-15.1,15-25.2,11.3c-10.1-3.7-15.3-14.8-11.5-24.8c1.8-4.8-0.7-10.2-5.6-12c-4.9-1.8-10.3,0.7-12.2,5.5
			c-7.4,19.6,2.7,41.4,22.6,48.7c2.6,0.9,5.2,1.5,7.8,1.9c0.1,0.1,0.1,0.3,0.3,0.5c5.4,6.2,8.4,14.1,8.4,22.3
			c0,18.9-15.6,34.2-34.8,34.2c-19.2,0-34.8-15.4-34.8-34.2c0-10.3,4.6-19.9,12.7-26.5c4-3.3,4.6-9.1,1.3-13.1
			c-3.3-4-9.3-4.5-13.3-1.3c-9.2,7.4-15.4,17.5-18.1,28.5c-13.6,0.7-39.7,5.2-52.7,27.4c-11.8-8.1-19.1-21.3-19.1-35.9
			c0-10.2,3.5-19.8,10-27.7c0.1-0.1,0.1-0.3,0.2-0.4c0.2-0.2,0.4-0.4,0.5-0.6c4.3-7,9.7-9.8,13.9-10.9c2.6,11.7,9.9,22.1,20.7,28.4
			c1.5,0.9,3.2,1.3,4.8,1.3c3.2,0,6.4-1.6,8.1-4.6c2.7-4.4,1.2-10.1-3.3-12.8c-7.9-4.6-12.7-13.1-12.5-22.1
			c0.2-10.7,7.3-20.1,17.7-23.4c5-1.6,7.7-6.8,6.1-11.7c-1.6-4.9-7-7.6-11.9-6c-15.1,4.8-26.1,17-29.6,31.8
			c-5.8,0.7-13.3,3-20.4,8.8c-2.8-6.6-4.4-13.7-4.4-21c0-20.1,11.2-38.6,29.3-48.1c0.2-0.1,0.4-0.3,0.6-0.4c0.2-0.1,0.5-0.2,0.7-0.3
			c1.1-0.8,25.2-17.9,55.5-0.5c-9.9,15.9-8.9,36.8,4.2,51.6c1.9,2.1,4.5,3.2,7.1,3.2c2.2,0,4.4-0.8,6.2-2.3
			c3.9-3.4,4.3-9.3,0.9-13.1c-9.3-10.4-8.2-26.3,2.4-35.3c5.1-4.4,11.7-6.6,18.5-6.2c6.8,0.4,13,3.5,17.5,8.5
			c3.5,3.9,9.4,4.3,13.4,0.9c3.9-3.4,4.3-9.3,0.9-13.1c-7.8-8.8-18.6-14-30.5-14.8c-9.7-0.6-19,2-27,7.1
			c-27.4-17.8-53.9-14-70.2-6.6c-0.7-2.7-1.1-5.5-1.1-8.4c0-15.9,11.3-29.3,26.4-32.8c1.9,8.1,6,19.2,14.9,24.8
			c1.6,1,3.4,1.5,5.1,1.5c3.1,0,6.2-1.5,8-4.3c2.8-4.3,1.6-10.1-2.8-12.9c-4.4-2.8-7-12.9-7.6-18.7c0.1-0.7,0.3-1.3,0.2-2
			c-0.2-1.5-0.3-3.1-0.3-4.7c0-16,11.5-29.5,26.7-32.9c0.9,11.3,4.3,29.2,16.3,42.6c8.5,9.4,20,14.8,33.7,16.5
			c5.1,10.1,15.6,16.4,26.8,16.4c3.3,0,6.6-0.5,9.8-1.6c4.9-1.7,7.5-7,5.8-11.9s-7.1-7.4-12.1-5.7c-5.7,2-12-1-13.9-6.6
			c-2-5.6,1-11.8,6.8-13.7c4.9-1.7,7.5-7,5.8-11.9c-1.7-4.9-7.2-7.4-12.1-5.7c-10.2,3.5-17.2,12-19.3,21.7c-7-1.6-12.6-4.8-17.1-9.7
			c-11.7-12.8-12-33.5-11.9-38.6c4-11.6,15.2-19.7,27.7-19.7c3.4,0,6.6,0.8,9.7,1.8c2.1,8.7,7.5,25.2,20.1,32.5
			c1.5,0.9,3.2,1.3,4.8,1.3c3.2,0,6.4-1.6,8.2-4.6c2.7-4.4,1.2-10.1-3.3-12.8c-5.8-3.4-9.8-13.9-11.5-21.5c3.5-5.5,9.4-9,16.1-9
			c10.6,0,19.2,8.4,19.2,18.8L227.4,171.4L227.4,171.4z"/>
	</g>
</g>
</svg>
